<?xml version="1.0" encoding="utf-8"?>
<!-- Generator: Adobe Illustrator 20.0.0, SVG Export Plug-In . SVG Version: 6.00 Build 0)  -->
<svg version="1.1" id="Calque_1" xmlns="http://www.w3.org/2000/svg" xmlns:xlink="http://www.w3.org/1999/xlink" x="0px" y="0px"
	 viewBox="0 0 132.4 86.7" style="enable-background:new 0 0 132.4 86.7;" xml:space="preserve">
<style type="text/css">
	.st0{fill:url(#SVGID_1_);}
	.st1{fill:url(#SVGID_2_);}
	.st2{fill:url(#SVGID_3_);}
	.st3{fill:url(#SVGID_4_);}
	.st4{fill:url(#SVGID_5_);}
	.st5{fill:url(#SVGID_6_);}
	.st6{fill:url(#SVGID_7_);}
	.st7{fill:url(#SVGID_8_);}
	.st8{fill:url(#SVGID_9_);}
	.st9{fill:url(#SVGID_10_);}
</style>
<g>
	
		<image style="overflow:visible;opacity:5.000000e-02;" width="483" height="334" xlink:href="513405D15E40BAF2.png"  transform="matrix(0.24 0 0 0.24 10.2548 5.3362)">
	</image>
	<g>
		<g>
			<g>
				<linearGradient id="SVGID_1_" gradientUnits="userSpaceOnUse" x1="86.1147" y1="25.3588" x2="118.1147" y2="25.3588">
					<stop  offset="0" style="stop-color:#E3E3E2"/>
					<stop  offset="1" style="stop-color:#FBFBFB"/>
				</linearGradient>
				<path class="st0" d="M115.6,32.4c-0.6,0-1.3-0.2-1.8-0.7l-5.8-5.8c-1.8,3.9-5.8,6.6-10.4,6.6c-6.3,0-11.5-5.2-11.5-11.5
					c0-1.4,1.1-2.5,2.5-2.5s2.5,1.1,2.5,2.5c0,3.6,2.9,6.5,6.5,6.5s6.5-2.9,6.5-6.5c0-1,0.6-1.9,1.5-2.3c0.9-0.4,2-0.2,2.7,0.5l9,9
					c1,1,1,2.6,0,3.5C116.9,32.1,116.3,32.4,115.6,32.4z"/>
			</g>
			<g>
				<linearGradient id="SVGID_2_" gradientUnits="userSpaceOnUse" x1="14.2548" y1="45.4889" x2="34.1177" y2="45.4889">
					<stop  offset="0" style="stop-color:#E3E3E2"/>
					<stop  offset="1" style="stop-color:#FBFBFB"/>
				</linearGradient>
				<path class="st1" d="M34.1,57.2c-0.2,3.1-1.6,5.9-4,7.9c-0.5,0.4-1,0.6-1.6,0.6c-0.7,0-1.4-0.3-1.9-0.9c-0.9-1-0.8-2.6,0.3-3.5
					c2.7-2.3,3-6.4,0.7-9.2c-2.1-2.4-5.6-3-8.3-1.3v4.8c0,1.4-1.1,2.5-2.5,2.5c-1.4,0-2.5-1.1-2.5-2.5V27.8c0-1.4,1.1-2.5,2.5-2.5
					c1.4,0,2.5,1.1,2.5,2.5v17.5c4.2-1.3,9-0.1,12.1,3.5C33.3,51.2,34.3,54.2,34.1,57.2z"/>
			</g>
			<linearGradient id="SVGID_3_" gradientUnits="userSpaceOnUse" x1="58.6352" y1="12.3156" x2="64.5942" y2="12.3156">
				<stop  offset="0" style="stop-color:#E3E3E2"/>
				<stop  offset="1" style="stop-color:#FBFBFB"/>
			</linearGradient>
			<circle class="st2" cx="61.6" cy="12.3" r="3"/>
			<g>
				<linearGradient id="SVGID_4_" gradientUnits="userSpaceOnUse" x1="14.2582" y1="52.3585" x2="64.1147" y2="52.3585">
					<stop  offset="0" style="stop-color:#E3E3E2"/>
					<stop  offset="1" style="stop-color:#FBFBFB"/>
				</linearGradient>
				<path class="st3" d="M16.8,77.4c-0.6,0-1.3-0.2-1.8-0.7c-1-1-1-2.6,0-3.5l44.9-45c0.7-0.7,1.8-0.9,2.7-0.5
					c0.9,0.4,1.5,1.3,1.5,2.3v18c0,1.4-1.1,2.5-2.5,2.5s-2.5-1.1-2.5-2.5v-12L18.5,76.6C18,77.1,17.4,77.4,16.8,77.4z"/>
			</g>
			<g>
				<linearGradient id="SVGID_5_" gradientUnits="userSpaceOnUse" x1="59.1147" y1="29.8588" x2="100.1147" y2="29.8588">
					<stop  offset="0" style="stop-color:#E3E3E2"/>
					<stop  offset="1" style="stop-color:#FBFBFB"/>
				</linearGradient>
				<path class="st4" d="M61.6,50.4c-0.6,0-1.3-0.2-1.8-0.7c-1-1-1-2.6,0-3.5l36-36c1-1,2.6-1,3.5,0s1,2.6,0,3.5l-36,36
					C62.9,50.1,62.3,50.4,61.6,50.4z"/>
			</g>
		</g>
	</g>
</g>
</svg>
