<svg id="Calque_1" data-name="Calque 1" xmlns="http://www.w3.org/2000/svg" xmlns:xlink="http://www.w3.org/1999/xlink" viewBox="0 0 103.86 68.02"><defs><style>.cls-1{fill:url(#Dégradé_sans_nom_6);}.cls-2{fill:url(#Dégradé_sans_nom_6-2);}.cls-3{fill:url(#Dégradé_sans_nom_6-3);}.cls-4{fill:url(#Dégradé_sans_nom_6-4);}.cls-5{fill:url(#Dégradé_sans_nom_6-5);}</style><linearGradient id="Dégradé_sans_nom_6" x1="1553.81" y1="571.19" x2="1585.81" y2="571.19" gradientUnits="userSpaceOnUse"><stop offset="0" stop-color="#e3e3e3"/><stop offset="1" stop-color="#fbfbfb"/></linearGradient><linearGradient id="Dégradé_sans_nom_6-2" x1="1481.95" y1="591.32" x2="1501.82" y2="591.32" xlink:href="#Dégradé_sans_nom_6"/><linearGradient id="Dégradé_sans_nom_6-3" x1="44.38" y1="2.98" x2="50.34" y2="2.98" xlink:href="#Dégradé_sans_nom_6"/><linearGradient id="Dégradé_sans_nom_6-4" x1="1481.96" y1="598.19" x2="1531.81" y2="598.19" xlink:href="#Dégradé_sans_nom_6"/><linearGradient id="Dégradé_sans_nom_6-5" x1="1526.81" y1="575.69" x2="1567.81" y2="575.69" xlink:href="#Dégradé_sans_nom_6"/></defs><title>bia_logo</title><path class="cls-1" d="M1583.31,578.19a2.49,2.49,0,0,1-1.77-.73l-5.84-5.84a11.5,11.5,0,0,1-21.89-4.93,2.5,2.5,0,1,1,5,0,6.5,6.5,0,0,0,13,0,2.5,2.5,0,0,1,4.27-1.77l9,9A2.5,2.5,0,0,1,1583.31,578.19Z" transform="translate(-1481.95 -555.17)"/><path class="cls-2" d="M1501.78,603.05a11.43,11.43,0,0,1-4,7.85,2.5,2.5,0,0,1-3.25-3.8,6.5,6.5,0,0,0-7.59-10.5v4.84a2.5,2.5,0,1,1-5,0v-27.8a2.5,2.5,0,0,1,5,0v17.53A11.5,11.5,0,0,1,1501.78,603.05Z" transform="translate(-1481.95 -555.17)"/><circle class="cls-3" cx="47.36" cy="2.98" r="2.98"/><path class="cls-4" d="M1484.46,623.19a2.5,2.5,0,0,1-1.77-4.26l44.86-45a2.5,2.5,0,0,1,4.27,1.76v18a2.5,2.5,0,0,1-5,0v-12l-40.59,40.72A2.49,2.49,0,0,1,1484.46,623.19Z" transform="translate(-1481.95 -555.17)"/><path class="cls-5" d="M1529.31,596.19a2.5,2.5,0,0,1-1.77-4.27l36-36a2.5,2.5,0,0,1,3.54,3.54l-36,36A2.49,2.49,0,0,1,1529.31,596.19Z" transform="translate(-1481.95 -555.17)"/></svg>