<svg id="Capa_1" data-name="Capa 1" xmlns="http://www.w3.org/2000/svg" viewBox="0 0 17.1 17.1"><title>instagram</title><path d="M135.38,82.23c2.28,0,2.55,0,3.45,0a4.73,4.73,0,0,1,1.59.29A2.83,2.83,0,0,1,142,84.2a4.73,4.73,0,0,1,.29,1.59c0,0.9,0,1.17,0,3.45s0,2.55,0,3.45a4.73,4.73,0,0,1-.29,1.59,2.83,2.83,0,0,1-1.62,1.62,4.73,4.73,0,0,1-1.59.29c-0.9,0-1.17,0-3.45,0s-2.55,0-3.45,0a4.73,4.73,0,0,1-1.59-.29,2.83,2.83,0,0,1-1.62-1.62,4.73,4.73,0,0,1-.29-1.59c0-.9,0-1.17,0-3.45s0-2.55,0-3.45a4.73,4.73,0,0,1,.29-1.59,2.83,2.83,0,0,1,1.62-1.62,4.73,4.73,0,0,1,1.59-.29c0.9,0,1.17,0,3.45,0m0-1.54c-2.32,0-2.61,0-3.52.05a6.28,6.28,0,0,0-2.08.4,4.37,4.37,0,0,0-2.5,2.5,6.28,6.28,0,0,0-.4,2.08c0,0.91-.05,1.2-0.05,3.52s0,2.61.05,3.52a6.28,6.28,0,0,0,.4,2.08,4.37,4.37,0,0,0,2.5,2.5,6.28,6.28,0,0,0,2.08.4c0.91,0,1.2.05,3.52,0.05s2.61,0,3.52-.05a6.28,6.28,0,0,0,2.08-.4,4.37,4.37,0,0,0,2.5-2.5,6.28,6.28,0,0,0,.4-2.08c0-.91.05-1.2,0.05-3.52s0-2.61-.05-3.52a6.28,6.28,0,0,0-.4-2.08,4.37,4.37,0,0,0-2.5-2.5,6.28,6.28,0,0,0-2.08-.4c-0.91,0-1.2-.05-3.52-0.05h0Z" transform="translate(-126.83 -80.69)"/><path d="M135.38,84.85a4.39,4.39,0,1,0,4.39,4.39A4.39,4.39,0,0,0,135.38,84.85Zm0,7.24a2.85,2.85,0,1,1,2.85-2.85A2.85,2.85,0,0,1,135.38,92.09Z" transform="translate(-126.83 -80.69)"/><circle cx="13.11" cy="3.99" r="1.03"/></svg>