<?xml version="1.0" encoding="utf-8"?>
<!-- Generator: Adobe Illustrator 19.2.1, SVG Export Plug-In . SVG Version: 6.00 Build 0)  -->
<svg version="1.1" id="Capa_1" xmlns="http://www.w3.org/2000/svg" xmlns:xlink="http://www.w3.org/1999/xlink" x="0px" y="0px"
	 viewBox="0 0 17.1 17.1" style="enable-background:new 0 0 17.1 17.1;" xml:space="preserve">
<style type="text/css">
	.st0{fill:#FFFFFF;}
</style>
<title>instagram</title>
<path class="st0" d="M8.6,1.5c2.3,0,2.6,0,3.4,0c0.5,0,1.1,0.1,1.6,0.3c0.7,0.3,1.3,0.9,1.6,1.7c0.2,0.5,0.3,1,0.3,1.6
	c0,0.9,0,1.2,0,3.4s0,2.6,0,3.4c0,0.5-0.1,1.1-0.3,1.6c-0.3,0.7-0.9,1.3-1.6,1.6c-0.5,0.2-1,0.3-1.6,0.3c-0.9,0-1.2,0-3.4,0
	s-2.6,0-3.4,0c-0.5,0-1.1-0.1-1.6-0.3c-0.7-0.3-1.3-0.9-1.6-1.6c-0.2-0.5-0.3-1-0.3-1.6c0-0.9,0-1.2,0-3.4s0-2.6,0-3.4
	c0-0.5,0.1-1.1,0.3-1.6c0.3-0.7,0.9-1.3,1.6-1.6c0.5-0.2,1-0.3,1.6-0.3C6,1.6,6.2,1.6,8.6,1.5 M8.5,0.1c-2.3,0-2.6,0-3.5,0.1
	c-0.7,0-1.4,0.1-2.1,0.4C1.8,1,0.9,1.9,0.4,3C0.2,3.7,0,4.4,0,5.1C0,6,0,6.3,0,8.6s0,2.6,0.1,3.5c0,0.7,0.1,1.4,0.4,2.1
	c0.4,1.1,1.4,2.1,2.5,2.5C3.6,17,4.3,17.1,5,17.1c0.9,0,1.2,0.1,3.5,0.1s2.6,0,3.5-0.1c0.7,0,1.4-0.1,2.1-0.4
	c1.1-0.4,2.1-1.4,2.5-2.5c0.3-0.7,0.4-1.4,0.4-2.1c0-0.9,0.1-1.2,0.1-3.5s0-2.6-0.1-3.5c0-0.7-0.1-1.4-0.4-2.1
	c-0.4-1.1-1.4-2.1-2.5-2.5c-0.7-0.3-1.4-0.4-2.1-0.4C11.1,0.1,10.8,0.1,8.5,0.1L8.5,0.1z"/>
<path class="st0" d="M8.6,4.2c-2.4,0-4.4,2-4.4,4.4s2,4.4,4.4,4.4s4.4-2,4.4-4.4l0,0C12.9,6.1,11,4.2,8.6,4.2z M8.6,11.4
	c-1.6,0-2.8-1.3-2.8-2.9S7,5.7,8.6,5.7c1.6,0,2.8,1.3,2.8,2.8S10.1,11.4,8.6,11.4L8.6,11.4z"/>
<circle class="st0" cx="13.1" cy="4" r="1"/>
</svg>
