<?xml version="1.0" encoding="utf-8"?>
<!-- Generator: Adobe Illustrator 19.2.1, SVG Export Plug-In . SVG Version: 6.00 Build 0)  -->
<svg version="1.1" id="Capa_1" xmlns="http://www.w3.org/2000/svg" xmlns:xlink="http://www.w3.org/1999/xlink" x="0px" y="0px"
	 viewBox="0 0 17 13.9" style="enable-background:new 0 0 17 13.9;" xml:space="preserve">
<style type="text/css">
	.st0{fill:#FFFFFF;}
</style>
<title>twitter</title>
<path class="st0" d="M17,1.7c-0.6,0.3-1.3,0.5-2,0.6c0.7-0.4,1.3-1.1,1.5-1.9c-0.7,0.4-1.4,0.7-2.2,0.8c-1.3-1.4-3.5-1.6-4.9-0.3
	C8.4,1.7,8,3.1,8.3,4.3C5.5,4.2,2.9,2.9,1.1,0.7C0.2,2.3,0.7,4.3,2.2,5.4c-0.6,0-1.1-0.2-1.6-0.4l0,0c0,1.7,1.2,3.1,2.8,3.4
	C3.2,8.4,2.8,8.5,2.5,8.5c-0.2,0-0.4,0-0.7-0.1c0.5,1.4,1.8,2.4,3.3,2.4C3.7,12,1.8,12.5,0,12.3c4.6,3,10.8,1.6,13.7-3
	c1-1.6,1.6-3.5,1.6-5.4c0-0.2,0-0.3,0-0.4C16,3,16.6,2.4,17,1.7"/>
</svg>
