<svg version="1.1" id="Calque_1" xmlns="http://www.w3.org/2000/svg" xmlns:xlink="http://www.w3.org/1999/xlink" x="0" y="0" viewBox="0 0 132.4 86.7" xml:space="preserve"><style type="text/css">.st0{fill:url(#SVGID_1_)}.st1{fill:url(#SVGID_2_)}.st2{fill:url(#SVGID_3_)}.st3{fill:url(#SVGID_4_)}.st4{fill:url(#SVGID_5_)}.st5{fill:url(#SVGID_6_)}.st6{fill:url(#SVGID_7_)}.st7{fill:url(#SVGID_8_)}.st8{fill:url(#SVGID_9_)}.st9{fill:url(#SVGID_10_)}</style><image width="483" height="334" xlink:href="513405D15E40BAF2.png" transform="matrix(.24 0 0 .24 10.255 5.336)" overflow="visible" opacity=".05"/><linearGradient id="SVGID_1_" gradientUnits="userSpaceOnUse" x1="86.115" y1="25.359" x2="118.115" y2="25.359"><stop offset="0" stop-color="#e3e3e2"/><stop offset="1" stop-color="#fbfbfb"/></linearGradient><path class="st0" d="M115.6 32.4c-.6 0-1.3-.2-1.8-.7l-5.8-5.8c-1.8 3.9-5.8 6.6-10.4 6.6-6.3 0-11.5-5.2-11.5-11.5 0-1.4 1.1-2.5 2.5-2.5s2.5 1.1 2.5 2.5c0 3.6 2.9 6.5 6.5 6.5s6.5-2.9 6.5-6.5c0-1 .6-1.9 1.5-2.3.9-.4 2-.2 2.7.5l9 9c1 1 1 2.6 0 3.5-.4.4-1 .7-1.7.7z"/><linearGradient id="SVGID_2_" gradientUnits="userSpaceOnUse" x1="14.255" y1="45.489" x2="34.118" y2="45.489"><stop offset="0" stop-color="#e3e3e2"/><stop offset="1" stop-color="#fbfbfb"/></linearGradient><path class="st1" d="M34.1 57.2c-.2 3.1-1.6 5.9-4 7.9-.5.4-1 .6-1.6.6-.7 0-1.4-.3-1.9-.9-.9-1-.8-2.6.3-3.5 2.7-2.3 3-6.4.7-9.2-2.1-2.4-5.6-3-8.3-1.3v4.8c0 1.4-1.1 2.5-2.5 2.5s-2.5-1.1-2.5-2.5V27.8c0-1.4 1.1-2.5 2.5-2.5s2.5 1.1 2.5 2.5v17.5c4.2-1.3 9-.1 12.1 3.5 1.9 2.4 2.9 5.4 2.7 8.4z"/><linearGradient id="SVGID_3_" gradientUnits="userSpaceOnUse" x1="58.635" y1="12.316" x2="64.594" y2="12.316"><stop offset="0" stop-color="#e3e3e2"/><stop offset="1" stop-color="#fbfbfb"/></linearGradient><circle class="st2" cx="61.6" cy="12.3" r="3"/><g><linearGradient id="SVGID_4_" gradientUnits="userSpaceOnUse" x1="14.258" y1="52.358" x2="64.115" y2="52.358"><stop offset="0" stop-color="#e3e3e2"/><stop offset="1" stop-color="#fbfbfb"/></linearGradient><path class="st3" d="M16.8 77.4c-.6 0-1.3-.2-1.8-.7-1-1-1-2.6 0-3.5l44.9-45c.7-.7 1.8-.9 2.7-.5.9.4 1.5 1.3 1.5 2.3v18c0 1.4-1.1 2.5-2.5 2.5s-2.5-1.1-2.5-2.5V36L18.5 76.6c-.5.5-1.1.8-1.7.8z"/></g><g><linearGradient id="SVGID_5_" gradientUnits="userSpaceOnUse" x1="59.115" y1="29.859" x2="100.115" y2="29.859"><stop offset="0" stop-color="#e3e3e2"/><stop offset="1" stop-color="#fbfbfb"/></linearGradient><path class="st4" d="M61.6 50.4c-.6 0-1.3-.2-1.8-.7-1-1-1-2.6 0-3.5l36-36c1-1 2.6-1 3.5 0s1 2.6 0 3.5l-36 36c-.4.4-1 .7-1.7.7z"/></g></svg>