<svg version="1.1" id="Capa_1" xmlns="http://www.w3.org/2000/svg" x="0" y="0" viewBox="0 0 17.1 17.1" xml:space="preserve"><style type="text/css">.st0{fill:#fff}</style><title>instagram</title><path class="st0" d="M8.6 1.5H12c.5 0 1.1.1 1.6.3.7.3 1.3.9 1.6 1.7.2.5.3 1 .3 1.6v6.8c0 .5-.1 1.1-.3 1.6-.3.7-.9 1.3-1.6 1.6-.5.2-1 .3-1.6.3H5.2c-.5 0-1.1-.1-1.6-.3-.7-.3-1.3-.9-1.6-1.6-.2-.5-.3-1-.3-1.6V8.5 5.1c0-.5.1-1.1.3-1.6.3-.7.9-1.3 1.6-1.6.5-.2 1-.3 1.6-.3.8 0 1 0 3.4-.1M8.5.1C6.2.1 5.9.1 5 .2c-.7 0-1.4.1-2.1.4C1.8 1 .9 1.9.4 3 .2 3.7 0 4.4 0 5.1v3.5c0 2.3 0 2.6.1 3.5 0 .7.1 1.4.4 2.1.4 1.1 1.4 2.1 2.5 2.5.6.3 1.3.4 2 .4.9 0 1.2.1 3.5.1s2.6 0 3.5-.1c.7 0 1.4-.1 2.1-.4 1.1-.4 2.1-1.4 2.5-2.5.3-.7.4-1.4.4-2.1 0-.9.1-1.2.1-3.5s0-2.6-.1-3.5c0-.7-.1-1.4-.4-2.1-.4-1.1-1.4-2.1-2.5-2.5-.7-.3-1.4-.4-2.1-.4H8.5z"/><path class="st0" d="M8.6 4.2c-2.4 0-4.4 2-4.4 4.4s2 4.4 4.4 4.4S13 11 13 8.6c-.1-2.5-2-4.4-4.4-4.4zm0 7.2c-1.6 0-2.8-1.3-2.8-2.9S7 5.7 8.6 5.7c1.6 0 2.8 1.3 2.8 2.8s-1.3 2.9-2.8 2.9z"/><circle class="st0" cx="13.1" cy="4" r="1"/></svg>