<svg id="Capa_1" data-name="Capa 1" xmlns="http://www.w3.org/2000/svg" viewBox="0 0 17.04 13.85"><title>twitter</title><path d="M191.38 84a7 7 0 0 1-2 .55 3.5 3.5 0 0 0 1.54-1.93 7 7 0 0 1-2.22.85 3.5 3.5 0 0 0-6 3.19 9.92 9.92 0 0 1-7.2-3.65 3.5 3.5 0 0 0 1.08 4.67 3.5 3.5 0 0 1-1.58-.44 3.5 3.5 0 0 0 2.8 3.43 3.41 3.41 0 0 1-.92.12 3.46 3.46 0 0 1-.66-.06 3.5 3.5 0 0 0 3.26 2.43 7.07 7.07 0 0 1-5.17 1.45 9.94 9.94 0 0 0 15.3-8.37v-.45a7.09 7.09 0 0 0 1.77-1.79" transform="translate(-174.35 -82.32)"/></svg>