<svg version="1.1" id="Capa_1" xmlns="http://www.w3.org/2000/svg" x="0" y="0" viewBox="0 0 17 13.9" xml:space="preserve"><style type="text/css">.st0{fill:#fff}</style><title>twitter</title><path class="st0" d="M17 1.7c-.6.3-1.3.5-2 .6.7-.4 1.3-1.1 1.5-1.9-.7.4-1.4.7-2.2.8C13-.2 10.8-.4 9.4.9c-1 .8-1.4 2.2-1.1 3.4C5.5 4.2 2.9 2.9 1.1.7.2 2.3.7 4.3 2.2 5.4c-.6 0-1.1-.2-1.6-.4 0 1.7 1.2 3.1 2.8 3.4-.2 0-.6.1-.9.1-.2 0-.4 0-.7-.1.5 1.4 1.8 2.4 3.3 2.4C3.7 12 1.8 12.5 0 12.3c4.6 3 10.8 1.6 13.7-3 1-1.6 1.6-3.5 1.6-5.4v-.4C16 3 16.6 2.4 17 1.7"/></svg>